# xmcd CD database file
#
# Track frame offsets:
#	150
#	19508
#	38427
#	52576
#	72022
#	78373
#	94187
#	113110
#	132490
#	138167
#	157511
#	173817
#	188189
#	204855
#	221978
#
# Disc length: 3230 seconds
#
# Revision: 0
# Processed by: cddbd v1.4PL0 Copyright (c) Steve Scherf et al.
# Submitted via: CDex 1.50beta10
#
DISCID=b60c9c0f
DTITLE=P.O.D. - Satellite
DYEAR=2002
DGENRE=New Age
TTITLE0=Set It Off
TTITLE1=Alive
TTITLE2=Boom
TTITLE3=Youth Of The Nation
TTITLE4=Celestial
TTITLE5=Satellite
TTITLE6=Ridiculous
TTITLE7=The Messenjah
TTITLE8=Guitarras De Amor
TTITLE9=Anything Right
TTITLE10=Ghetto
TTITLE11=Masterpiece Conspiracy
TTITLE12=Without Jah, Nothin'
TTITLE13=Thinking About Forever
TTITLE14=Portrait
EXTD=YEAR: 2002
EXTT0=
EXTT1=
EXTT2=
EXTT3=
EXTT4=
EXTT5=
EXTT6=
EXTT7=
EXTT8=
EXTT9=
EXTT10=
EXTT11=
EXTT12=
EXTT13=
EXTT14=
PLAYORDER=
